<mxfile host="app.diagrams.net" modified="2022-06-30T09:11:02.118Z" agent="5.0 (Windows NT 10.0; Win64; x64) AppleWebKit/537.36 (KHTML, like Gecko) Chrome/103.0.0.0 Safari/537.36" etag="S4sB5GFZApYQkdRwweyb" version="20.0.4" type="github">
  <diagram id="C5RBs43oDa-KdzZeNtuy" name="Page-1">
    <mxGraphModel dx="1422" dy="762" grid="1" gridSize="10" guides="1" tooltips="1" connect="1" arrows="1" fold="1" page="1" pageScale="1" pageWidth="1169" pageHeight="827" background="#F1FAEE" math="0" shadow="0">
      <root>
        <mxCell id="WIyWlLk6GJQsqaUBKTNV-0" />
        <mxCell id="WIyWlLk6GJQsqaUBKTNV-1" parent="WIyWlLk6GJQsqaUBKTNV-0" />
        <mxCell id="VsJrBDG9gIcl0i6GgCjG-12" value="" style="edgeStyle=orthogonalEdgeStyle;rounded=0;orthogonalLoop=1;jettySize=auto;html=1;fontSize=20;labelBackgroundColor=#F1FAEE;strokeColor=#457B9D;fontColor=#1D3557;" parent="WIyWlLk6GJQsqaUBKTNV-1" source="VsJrBDG9gIcl0i6GgCjG-7" edge="1">
          <mxGeometry relative="1" as="geometry">
            <mxPoint x="280" y="360" as="targetPoint" />
          </mxGeometry>
        </mxCell>
        <object label="Git使用流程" dd="dd" id="VsJrBDG9gIcl0i6GgCjG-7">
          <mxCell style="ellipse;whiteSpace=wrap;html=1;aspect=fixed;shadow=0;fontSize=20;fillColor=#A8DADC;strokeColor=#457B9D;fontColor=#1D3557;" parent="WIyWlLk6GJQsqaUBKTNV-1" vertex="1">
            <mxGeometry x="60" y="300" width="120" height="120" as="geometry" />
          </mxCell>
        </object>
        <mxCell id="VsJrBDG9gIcl0i6GgCjG-8" value="主分支&lt;br&gt;master(main)" style="rounded=0;whiteSpace=wrap;html=1;shadow=0;fontSize=20;fillColor=#A8DADC;strokeColor=#457B9D;fontColor=#1D3557;" parent="WIyWlLk6GJQsqaUBKTNV-1" vertex="1">
          <mxGeometry x="280" y="330" width="160" height="60" as="geometry" />
        </mxCell>
        <mxCell id="mdBWVWQ5vNUbKhdBPsOH-7" value="" style="edgeStyle=orthogonalEdgeStyle;rounded=0;orthogonalLoop=1;jettySize=auto;html=1;" parent="WIyWlLk6GJQsqaUBKTNV-1" source="VsJrBDG9gIcl0i6GgCjG-17" target="mdBWVWQ5vNUbKhdBPsOH-6" edge="1">
          <mxGeometry relative="1" as="geometry" />
        </mxCell>
        <mxCell id="jJ-d6IJMYuT-6hU6qVrv-8" value="" style="edgeStyle=orthogonalEdgeStyle;rounded=0;orthogonalLoop=1;jettySize=auto;html=1;" parent="WIyWlLk6GJQsqaUBKTNV-1" source="VsJrBDG9gIcl0i6GgCjG-17" target="jJ-d6IJMYuT-6hU6qVrv-7" edge="1">
          <mxGeometry relative="1" as="geometry">
            <Array as="points">
              <mxPoint x="580" y="130" />
              <mxPoint x="580" y="130" />
            </Array>
          </mxGeometry>
        </mxCell>
        <mxCell id="Xlmyi2aGZPj6Cxzf9AtC-1" value="Create Tag" style="edgeLabel;html=1;align=center;verticalAlign=middle;resizable=0;points=[];" parent="jJ-d6IJMYuT-6hU6qVrv-8" vertex="1" connectable="0">
          <mxGeometry x="0.2889" y="-2" relative="1" as="geometry">
            <mxPoint as="offset" />
          </mxGeometry>
        </mxCell>
        <mxCell id="VsJrBDG9gIcl0i6GgCjG-17" value="分支A" style="ellipse;whiteSpace=wrap;html=1;fontSize=20;rounded=0;shadow=0;fillColor=#A8DADC;strokeColor=#457B9D;fontColor=#1D3557;" parent="WIyWlLk6GJQsqaUBKTNV-1" vertex="1">
          <mxGeometry x="520" y="190" width="120" height="60" as="geometry" />
        </mxCell>
        <mxCell id="VsJrBDG9gIcl0i6GgCjG-20" value="分支B" style="ellipse;whiteSpace=wrap;html=1;fontSize=20;rounded=0;shadow=0;fillColor=#A8DADC;strokeColor=#457B9D;fontColor=#1D3557;" parent="WIyWlLk6GJQsqaUBKTNV-1" vertex="1">
          <mxGeometry x="520" y="470" width="120" height="60" as="geometry" />
        </mxCell>
        <mxCell id="VsJrBDG9gIcl0i6GgCjG-34" value="&lt;font style=&quot;&quot;&gt;&lt;font style=&quot;font-size: 20px;&quot;&gt;分支common&lt;/font&gt;&lt;br&gt;&lt;span style=&quot;font-size: 14px;&quot;&gt;修改供公用内容&lt;/span&gt;&lt;/font&gt;" style="shape=step;perimeter=stepPerimeter;whiteSpace=wrap;html=1;fixedSize=1;fontSize=20;fillColor=#A8DADC;strokeColor=#457B9D;fontColor=#FFFF33;rounded=0;shadow=0;" parent="WIyWlLk6GJQsqaUBKTNV-1" vertex="1">
          <mxGeometry x="700" y="320" width="180" height="80" as="geometry" />
        </mxCell>
        <mxCell id="mdBWVWQ5vNUbKhdBPsOH-2" value="Rebase" style="endArrow=classic;html=1;rounded=0;exitX=0.5;exitY=0;exitDx=0;exitDy=0;entryX=0.5;entryY=1;entryDx=0;entryDy=0;" parent="WIyWlLk6GJQsqaUBKTNV-1" source="VsJrBDG9gIcl0i6GgCjG-34" target="mdBWVWQ5vNUbKhdBPsOH-6" edge="1">
          <mxGeometry relative="1" as="geometry">
            <mxPoint x="560" y="400" as="sourcePoint" />
            <mxPoint x="720" y="400" as="targetPoint" />
          </mxGeometry>
        </mxCell>
        <mxCell id="mdBWVWQ5vNUbKhdBPsOH-6" value="分支A1" style="ellipse;whiteSpace=wrap;html=1;fontSize=20;fillColor=#A8DADC;strokeColor=#457B9D;fontColor=#1D3557;rounded=0;shadow=0;" parent="WIyWlLk6GJQsqaUBKTNV-1" vertex="1">
          <mxGeometry x="730" y="190" width="120" height="60" as="geometry" />
        </mxCell>
        <mxCell id="mdBWVWQ5vNUbKhdBPsOH-15" value="New branch" style="endArrow=classic;html=1;rounded=0;entryX=0.5;entryY=1;entryDx=0;entryDy=0;" parent="WIyWlLk6GJQsqaUBKTNV-1" target="VsJrBDG9gIcl0i6GgCjG-17" edge="1">
          <mxGeometry width="50" height="50" relative="1" as="geometry">
            <mxPoint x="360" y="330" as="sourcePoint" />
            <mxPoint x="410" y="280" as="targetPoint" />
            <Array as="points">
              <mxPoint x="360" y="250" />
            </Array>
          </mxGeometry>
        </mxCell>
        <mxCell id="mdBWVWQ5vNUbKhdBPsOH-16" value="New branch" style="endArrow=classic;html=1;rounded=0;entryX=0;entryY=0.5;entryDx=0;entryDy=0;exitX=0.5;exitY=1;exitDx=0;exitDy=0;" parent="WIyWlLk6GJQsqaUBKTNV-1" source="VsJrBDG9gIcl0i6GgCjG-8" target="VsJrBDG9gIcl0i6GgCjG-20" edge="1">
          <mxGeometry width="50" height="50" relative="1" as="geometry">
            <mxPoint x="370" y="530" as="sourcePoint" />
            <mxPoint x="420" y="480" as="targetPoint" />
            <Array as="points">
              <mxPoint x="360" y="500" />
            </Array>
          </mxGeometry>
        </mxCell>
        <mxCell id="Xlmyi2aGZPj6Cxzf9AtC-26" value="" style="edgeStyle=orthogonalEdgeStyle;rounded=0;orthogonalLoop=1;jettySize=auto;html=1;fontSize=16;" parent="WIyWlLk6GJQsqaUBKTNV-1" source="mdBWVWQ5vNUbKhdBPsOH-17" target="Xlmyi2aGZPj6Cxzf9AtC-25" edge="1">
          <mxGeometry relative="1" as="geometry" />
        </mxCell>
        <mxCell id="mdBWVWQ5vNUbKhdBPsOH-17" value="分支B1" style="ellipse;whiteSpace=wrap;html=1;fontSize=20;fillColor=#A8DADC;strokeColor=#457B9D;fontColor=#1D3557;rounded=0;shadow=0;" parent="WIyWlLk6GJQsqaUBKTNV-1" vertex="1">
          <mxGeometry x="730" y="470" width="120" height="60" as="geometry" />
        </mxCell>
        <mxCell id="mdBWVWQ5vNUbKhdBPsOH-18" value="" style="endArrow=classic;html=1;rounded=0;entryX=0;entryY=0.5;entryDx=0;entryDy=0;exitX=1;exitY=0.5;exitDx=0;exitDy=0;" parent="WIyWlLk6GJQsqaUBKTNV-1" source="VsJrBDG9gIcl0i6GgCjG-20" target="mdBWVWQ5vNUbKhdBPsOH-17" edge="1">
          <mxGeometry width="50" height="50" relative="1" as="geometry">
            <mxPoint x="600" y="610" as="sourcePoint" />
            <mxPoint x="650" y="560" as="targetPoint" />
          </mxGeometry>
        </mxCell>
        <mxCell id="mdBWVWQ5vNUbKhdBPsOH-19" value="Rebase" style="endArrow=classic;html=1;rounded=0;exitX=0.5;exitY=1;exitDx=0;exitDy=0;entryX=0.5;entryY=0;entryDx=0;entryDy=0;" parent="WIyWlLk6GJQsqaUBKTNV-1" source="VsJrBDG9gIcl0i6GgCjG-34" target="mdBWVWQ5vNUbKhdBPsOH-17" edge="1">
          <mxGeometry relative="1" as="geometry">
            <mxPoint x="910" y="470" as="sourcePoint" />
            <mxPoint x="910" y="400" as="targetPoint" />
          </mxGeometry>
        </mxCell>
        <mxCell id="mdBWVWQ5vNUbKhdBPsOH-20" value="" style="endArrow=classic;html=1;rounded=0;entryX=1;entryY=1;entryDx=0;entryDy=0;exitX=0.006;exitY=0.875;exitDx=0;exitDy=0;exitPerimeter=0;" parent="WIyWlLk6GJQsqaUBKTNV-1" source="VsJrBDG9gIcl0i6GgCjG-34" target="VsJrBDG9gIcl0i6GgCjG-8" edge="1">
          <mxGeometry width="50" height="50" relative="1" as="geometry">
            <mxPoint x="690" y="390" as="sourcePoint" />
            <mxPoint x="1070" y="360" as="targetPoint" />
            <Array as="points" />
          </mxGeometry>
        </mxCell>
        <mxCell id="Xlmyi2aGZPj6Cxzf9AtC-18" value="测试通过" style="edgeLabel;html=1;align=center;verticalAlign=middle;resizable=0;points=[];fontSize=16;" parent="mdBWVWQ5vNUbKhdBPsOH-20" vertex="1" connectable="0">
          <mxGeometry x="0.1344" y="1" relative="1" as="geometry">
            <mxPoint as="offset" />
          </mxGeometry>
        </mxCell>
        <mxCell id="mdBWVWQ5vNUbKhdBPsOH-21" value="&lt;br&gt;" style="endArrow=classic;html=1;rounded=0;" parent="WIyWlLk6GJQsqaUBKTNV-1" edge="1">
          <mxGeometry width="50" height="50" relative="1" as="geometry">
            <mxPoint x="440" y="330" as="sourcePoint" />
            <mxPoint x="700" y="330" as="targetPoint" />
          </mxGeometry>
        </mxCell>
        <mxCell id="Xlmyi2aGZPj6Cxzf9AtC-15" value="New branch" style="edgeLabel;html=1;align=center;verticalAlign=middle;resizable=0;points=[];fontSize=16;" parent="mdBWVWQ5vNUbKhdBPsOH-21" vertex="1" connectable="0">
          <mxGeometry x="-0.1077" y="-1" relative="1" as="geometry">
            <mxPoint as="offset" />
          </mxGeometry>
        </mxCell>
        <mxCell id="mdBWVWQ5vNUbKhdBPsOH-22" value="merge" style="endArrow=classic;html=1;rounded=0;exitX=1;exitY=0.5;exitDx=0;exitDy=0;" parent="WIyWlLk6GJQsqaUBKTNV-1" source="mdBWVWQ5vNUbKhdBPsOH-6" edge="1">
          <mxGeometry width="50" height="50" relative="1" as="geometry">
            <mxPoint x="850" y="500" as="sourcePoint" />
            <mxPoint x="850" y="500" as="targetPoint" />
            <Array as="points">
              <mxPoint x="1000" y="360" />
            </Array>
          </mxGeometry>
        </mxCell>
        <mxCell id="mdBWVWQ5vNUbKhdBPsOH-23" value="merge" style="endArrow=classic;html=1;rounded=0;entryX=0;entryY=0;entryDx=0;entryDy=0;exitX=0.5;exitY=0;exitDx=0;exitDy=0;" parent="WIyWlLk6GJQsqaUBKTNV-1" source="VsJrBDG9gIcl0i6GgCjG-17" target="VsJrBDG9gIcl0i6GgCjG-8" edge="1">
          <mxGeometry width="50" height="50" relative="1" as="geometry">
            <mxPoint x="190" y="230" as="sourcePoint" />
            <mxPoint x="240" y="180" as="targetPoint" />
            <Array as="points">
              <mxPoint x="430" y="190" />
              <mxPoint x="280" y="190" />
            </Array>
          </mxGeometry>
        </mxCell>
        <mxCell id="jJ-d6IJMYuT-6hU6qVrv-5" value="版本：0.0.1" style="shape=process;whiteSpace=wrap;html=1;backgroundOutline=1;fillColor=#dae8fc;strokeColor=#6c8ebf;fontSize=14;" parent="WIyWlLk6GJQsqaUBKTNV-1" vertex="1">
          <mxGeometry x="220" y="40" width="120" height="60" as="geometry" />
        </mxCell>
        <mxCell id="jJ-d6IJMYuT-6hU6qVrv-6" value="" style="endArrow=classic;html=1;rounded=0;exitX=0;exitY=1;exitDx=0;exitDy=0;" parent="WIyWlLk6GJQsqaUBKTNV-1" source="VsJrBDG9gIcl0i6GgCjG-8" edge="1">
          <mxGeometry width="50" height="50" relative="1" as="geometry">
            <mxPoint x="260" y="570" as="sourcePoint" />
            <mxPoint x="280" y="100" as="targetPoint" />
          </mxGeometry>
        </mxCell>
        <mxCell id="Xlmyi2aGZPj6Cxzf9AtC-0" value="Create Tag" style="edgeLabel;html=1;align=center;verticalAlign=middle;resizable=0;points=[];" parent="jJ-d6IJMYuT-6hU6qVrv-6" vertex="1" connectable="0">
          <mxGeometry x="0.6828" y="-2" relative="1" as="geometry">
            <mxPoint as="offset" />
          </mxGeometry>
        </mxCell>
        <mxCell id="jJ-d6IJMYuT-6hU6qVrv-7" value="版本0.0.2" style="shape=process;whiteSpace=wrap;html=1;backgroundOutline=1;fontSize=14;fillColor=#dae8fc;strokeColor=#6c8ebf;rounded=0;shadow=0;" parent="WIyWlLk6GJQsqaUBKTNV-1" vertex="1">
          <mxGeometry x="520" y="40" width="120" height="60" as="geometry" />
        </mxCell>
        <mxCell id="Xlmyi2aGZPj6Cxzf9AtC-4" value="web(B2)" style="rhombus;whiteSpace=wrap;html=1;fontSize=16;fillColor=#A8DADC;strokeColor=#457B9D;fontColor=#1D3557;rounded=0;shadow=0;" parent="WIyWlLk6GJQsqaUBKTNV-1" vertex="1">
          <mxGeometry x="940" y="620" width="120" height="80" as="geometry" />
        </mxCell>
        <mxCell id="Xlmyi2aGZPj6Cxzf9AtC-9" value="" style="endArrow=classic;html=1;rounded=0;fontSize=16;exitX=0;exitY=0.667;exitDx=0;exitDy=0;exitPerimeter=0;" parent="WIyWlLk6GJQsqaUBKTNV-1" source="VsJrBDG9gIcl0i6GgCjG-20" edge="1">
          <mxGeometry width="50" height="50" relative="1" as="geometry">
            <mxPoint x="290" y="620" as="sourcePoint" />
            <mxPoint x="280" y="390" as="targetPoint" />
            <Array as="points">
              <mxPoint x="520" y="590" />
              <mxPoint x="280" y="590" />
            </Array>
          </mxGeometry>
        </mxCell>
        <mxCell id="Xlmyi2aGZPj6Cxzf9AtC-14" value="测试通过" style="edgeLabel;html=1;align=center;verticalAlign=middle;resizable=0;points=[];fontSize=16;" parent="Xlmyi2aGZPj6Cxzf9AtC-9" vertex="1" connectable="0">
          <mxGeometry x="-0.0571" y="1" relative="1" as="geometry">
            <mxPoint as="offset" />
          </mxGeometry>
        </mxCell>
        <mxCell id="Xlmyi2aGZPj6Cxzf9AtC-19" value="分支B2" style="ellipse;whiteSpace=wrap;html=1;fontSize=20;fillColor=#A8DADC;strokeColor=#457B9D;fontColor=#1D3557;rounded=0;shadow=0;" parent="WIyWlLk6GJQsqaUBKTNV-1" vertex="1">
          <mxGeometry x="740" y="630" width="120" height="60" as="geometry" />
        </mxCell>
        <mxCell id="Xlmyi2aGZPj6Cxzf9AtC-23" value="" style="endArrow=classic;html=1;rounded=0;fontSize=16;entryX=0.5;entryY=0;entryDx=0;entryDy=0;" parent="WIyWlLk6GJQsqaUBKTNV-1" target="Xlmyi2aGZPj6Cxzf9AtC-19" edge="1">
          <mxGeometry width="50" height="50" relative="1" as="geometry">
            <mxPoint x="640" y="500" as="sourcePoint" />
            <mxPoint x="700" y="560" as="targetPoint" />
            <Array as="points">
              <mxPoint x="640" y="590" />
              <mxPoint x="800" y="590" />
            </Array>
          </mxGeometry>
        </mxCell>
        <mxCell id="Xlmyi2aGZPj6Cxzf9AtC-24" value="" style="endArrow=classic;html=1;rounded=0;fontSize=16;entryX=0;entryY=0.5;entryDx=0;entryDy=0;exitX=1;exitY=0.5;exitDx=0;exitDy=0;" parent="WIyWlLk6GJQsqaUBKTNV-1" source="Xlmyi2aGZPj6Cxzf9AtC-19" target="Xlmyi2aGZPj6Cxzf9AtC-4" edge="1">
          <mxGeometry width="50" height="50" relative="1" as="geometry">
            <mxPoint x="590" y="750" as="sourcePoint" />
            <mxPoint x="660" y="690" as="targetPoint" />
            <Array as="points" />
          </mxGeometry>
        </mxCell>
        <mxCell id="Xlmyi2aGZPj6Cxzf9AtC-25" value="web(B1)" style="rhombus;whiteSpace=wrap;html=1;fontSize=20;fillColor=#A8DADC;strokeColor=#457B9D;fontColor=#1D3557;rounded=0;shadow=0;" parent="WIyWlLk6GJQsqaUBKTNV-1" vertex="1">
          <mxGeometry x="940" y="460" width="120" height="80" as="geometry" />
        </mxCell>
        <mxCell id="Xlmyi2aGZPj6Cxzf9AtC-27" value="" style="endArrow=classic;html=1;rounded=0;fontSize=16;exitX=0.5;exitY=1;exitDx=0;exitDy=0;" parent="WIyWlLk6GJQsqaUBKTNV-1" source="Xlmyi2aGZPj6Cxzf9AtC-4" edge="1">
          <mxGeometry width="50" height="50" relative="1" as="geometry">
            <mxPoint x="860" y="790" as="sourcePoint" />
            <mxPoint x="580" y="530" as="targetPoint" />
            <Array as="points">
              <mxPoint x="1000" y="760" />
              <mxPoint x="900" y="760" />
              <mxPoint x="800" y="760" />
              <mxPoint x="580" y="760" />
            </Array>
          </mxGeometry>
        </mxCell>
        <mxCell id="Xlmyi2aGZPj6Cxzf9AtC-30" value="&lt;span style=&quot;color: rgba(0, 0, 0, 0); font-family: monospace; font-size: 0px; text-align: start; background-color: rgb(248, 249, 250);&quot;&gt;%3CmxGraphModel%3E%3Croot%3E%3CmxCell%20id%3D%220%22%2F%3E%3CmxCell%20id%3D%221%22%20parent%3D%220%22%2F%3E%3CmxCell%20id%3D%222%22%20value%3D%22%E6%B5%8B%E8%AF%95%E9%80%9A%E8%BF%87%22%20style%3D%22edgeLabel%3Bhtml%3D1%3Balign%3Dcenter%3BverticalAlign%3Dmiddle%3Bresizable%3D0%3Bpoints%3D%5B%5D%3BfontSize%3D16%3B%22%20vertex%3D%221%22%20connectable%3D%220%22%20parent%3D%221%22%3E%3CmxGeometry%20x%3D%22683%22%20y%3D%22761%22%20as%3D%22geometry%22%2F%3E%3C%2FmxCell%3E%3C%2Froot%3E%3C%2FmxGraphModel%3E测试&lt;/span&gt;" style="edgeLabel;html=1;align=center;verticalAlign=middle;resizable=0;points=[];fontSize=16;" parent="Xlmyi2aGZPj6Cxzf9AtC-27" vertex="1" connectable="0">
          <mxGeometry x="-0.2338" relative="1" as="geometry">
            <mxPoint as="offset" />
          </mxGeometry>
        </mxCell>
        <mxCell id="Xlmyi2aGZPj6Cxzf9AtC-31" value="测试通过" style="edgeLabel;html=1;align=center;verticalAlign=middle;resizable=0;points=[];fontSize=16;" parent="Xlmyi2aGZPj6Cxzf9AtC-27" vertex="1" connectable="0">
          <mxGeometry x="-0.2394" y="1" relative="1" as="geometry">
            <mxPoint as="offset" />
          </mxGeometry>
        </mxCell>
      </root>
    </mxGraphModel>
  </diagram>
</mxfile>
